<?xml version="1.0" encoding="UTF-8" standalone="no"?><!DOCTYPE svg PUBLIC "-//W3C//DTD SVG 1.1//EN" "http://www.w3.org/Graphics/SVG/1.1/DTD/svg11.dtd"><svg width="77" height="77" viewBox="0 0 77 75" version="1.1" xmlns="http://www.w3.org/2000/svg" xmlns:xlink="http://www.w3.org/1999/xlink" xml:space="preserve" xmlns:serif="http://www.serif.com/" style="fill-rule:evenodd;clip-rule:evenodd;stroke-linecap:round;stroke-linejoin:round;stroke-miterlimit:1.5;"><path id="path3763" d="M61.714,69.52c0.01,-7.556 2.015,-14.084 6.58,-21.429c13.477,-21.679 -1.435,-47.889 -27.219,-47.841c-14.307,0.027 -25.43,4.786 -30.159,16.246c-1.34,3.248 -0.586,4.916 -3.084,9.04c-2.461,4.06 -5.962,9.471 -6.064,12.996c-0.054,1.853 1.527,2.596 3.655,3.696c3.284,1.699 5.935,2.256 5.988,7.08c0.004,0.322 -0.05,0.666 0.005,1.021c1.935,12.289 3.944,13.455 11.406,13.163c5.138,-0.202 5.358,3.948 5.358,7.649l0,3.859l16.763,0l16.764,0l0.007,-5.48l0,0Z" style="fill-rule:nonzero;"/><path d="M29.632,20.457l-9.671,14.1l9.671,14.1" style="fill:none;stroke:#fff;stroke-width:7.5px;"/><path d="M50.993,20.457l9.671,14.1l-9.671,14.1" style="fill:none;stroke:#fff;stroke-width:7.5px;"/></svg>